<?xml version="1.0" encoding="utf-8"?>
<!-- Generator: Adobe Illustrator 22.1.0, SVG Export Plug-In . SVG Version: 6.00 Build 0)  -->
<svg version="1.1" id="レイヤー_1" xmlns="http://www.w3.org/2000/svg" xmlns:xlink="http://www.w3.org/1999/xlink" x="0px"
	 y="0px" viewBox="0 0 128 128" style="enable-background:new 0 0 128 128;" xml:space="preserve">
<style type="text/css">
	.st0{fill:#FCE5C8;stroke:#231815;stroke-width:2.737;stroke-miterlimit:10;}
	.st1{fill:#EA5C05;stroke:#231815;stroke-width:2.737;stroke-linejoin:round;stroke-miterlimit:10;}
	.st2{fill:none;stroke:#231815;stroke-width:2.737;stroke-linecap:round;stroke-miterlimit:10;}
	.st3{fill:none;stroke:#231815;stroke-width:4.1055;stroke-linecap:round;stroke-miterlimit:10;}
	.st4{fill:#FCE5C8;stroke:#231815;stroke-width:2.8195;stroke-miterlimit:10;}
</style>
<g>
	<path class="st0" d="M9.9,72.4c-0.2,5.4,4,10,9.4,10.2c5.4,0.2,10-4,10.2-9.4c0.2-5.4-4-10-9.4-10.2C14.7,62.8,10.1,67,9.9,72.4z"
		/>
	<path class="st0" d="M100.8,76.1c-0.2,5.4,4,10,9.4,10.2c5.4,0.2,10-4,10.2-9.4c0.2-5.4-4-10-9.4-10.2
		C105.6,66.5,101.1,70.7,100.8,76.1z"/>
	<path class="st1" d="M74.4,21.3c-0.1,3.7-3.3,6.5-6.9,6.4c-3.7-0.1-6.5-3.2-6.4-6.9c0.1-3.7,3.2-6.5,6.9-6.4
		C71.7,14.5,74.6,17.6,74.4,21.3z"/>
	<path class="st0" d="M21.6,70.9C22.5,48,43,30.3,67.3,31.3c24.3,1,43.2,20.3,42.3,43.1c-0.9,22.8-21.4,40.5-45.6,39.5
		C39.6,113,20.7,93.7,21.6,70.9z"/>
	<path class="st2" d="M40.4,87.2c0,0-1.1,17.4,22.2,18.3c0,0,23.9,1.8,25.5-17.8"/>
	<line class="st3" x1="50.4" y1="62.6" x2="50" y2="72.2"/>
	<line class="st3" x1="81.7" y1="63.9" x2="81.3" y2="73.5"/>
	<path class="st2" d="M42.2,57.6c1.2-3.6,3-7.7,7.3-8c4.3-0.4,6.1,2.9,6.9,6.8"/>
	<path class="st2" d="M91.3,59.2c-0.9-3.7-2.4-7.9-6.6-8.6c-4.3-0.7-6.3,2.4-7.4,6.2"/>
	<path class="st4" d="M48.7,75.1c-0.3,7.3,7,13.5,16.3,13.9c9.3,0.4,17.1-5.2,17.4-12.5c0.3-7.3-7-13.5-16.3-13.8
		C56.8,62.2,49,67.8,48.7,75.1z"/>
	<path class="st1" d="M21.9,61.2c0,0,46.7-25.8,88.2,5.4l-2.2-30c0,0-18.6-15.7-40.5-16.6c0,0-22.6,0.9-38.8,12.8L21.9,61.2z"/>
	<path class="st0" d="M54.2,46.4c0,0,0.3-7.2,5.4-7.4l13.3,0.5c0,0,5.1,0.8,2.9,5.4C75.7,45,60.2,42.7,54.2,46.4z"/>
	<path class="st1" d="M76.7,51.6c0,0,6.3-8.6-6.9-7.7c0,0-9.4-0.8-17.3,1.8l-0.2,5.7C52.3,51.4,72.9,48.4,76.7,51.6z"/>
</g>
</svg>
